<?xml version="1.0" standalone="no"?>
<!DOCTYPE svg PUBLIC "-//W3C//DTD SVG 20010904//EN"
 "http://www.w3.org/TR/2001/REC-SVG-20010904/DTD/svg10.dtd">
<svg version="1.0" xmlns="http://www.w3.org/2000/svg"
 width="400.000000pt" height="400.000000pt" viewBox="0 0 400.000000 400.000000"
 preserveAspectRatio="xMidYMid meet">
<metadata>
Created by potrace 1.14, written by Peter Selinger 2001-2017
</metadata>
<g transform="translate(0.000000,400.000000) scale(0.100000,-0.100000)"
fill="#000000" stroke="none">
<path d="M0 2000 l0 -2000 2000 0 2000 0 0 2000 0 2000 -2000 0 -2000 0 0
-2000z m1202 1385 c70 -28 164 -90 185 -122 l15 -23 39 34 c54 50 120 66 299
76 85 4 180 13 210 20 30 7 81 9 112 6 39 -4 70 -1 100 10 85 31 266 -2 345
-62 18 -14 46 -47 61 -73 l27 -48 50 28 c93 54 252 89 270 59 3 -6 20 -17 36
-26 26 -13 38 -14 79 -3 48 12 51 11 123 -24 91 -45 152 -102 166 -154 12 -45
15 -203 6 -254 -6 -33 -3 -41 32 -79 38 -43 38 -43 41 -141 5 -142 -13 -194
-96 -278 l-64 -63 12 -60 c10 -55 10 -62 -14 -111 -14 -29 -35 -68 -46 -87
-27 -47 -26 -63 16 -143 43 -83 42 -114 -6 -181 -26 -36 -30 -47 -21 -64 17
-32 13 -94 -9 -129 -27 -45 -65 -67 -123 -69 -38 -2 -56 -9 -76 -28 -15 -14
-32 -26 -37 -26 -6 0 -16 -11 -22 -25 -6 -14 -16 -25 -22 -25 -5 0 -19 -18
-30 -40 -11 -22 -25 -40 -30 -40 -5 0 -16 -15 -23 -33 -25 -59 -77 -104 -129
-112 -53 -8 -118 16 -157 58 l-24 26 -36 -18 c-125 -63 -298 -92 -441 -74 -50
7 -104 19 -122 27 -43 22 -65 20 -98 -7 -26 -22 -31 -23 -116 -15 -103 11
-189 46 -207 85 -10 22 -15 24 -56 18 -38 -5 -57 -1 -106 23 -69 33 -151 102
-161 135 -3 12 -12 29 -19 37 -6 8 -11 35 -10 60 4 76 -2 87 -47 93 -23 3 -53
14 -67 25 -37 27 -98 146 -117 228 -16 66 -16 75 -1 112 l16 41 -44 52 c-87
102 -113 200 -81 300 17 52 17 52 -9 112 -18 39 -25 69 -21 87 6 31 -10 40
-72 40 -40 0 -126 54 -173 107 -53 61 -62 94 -67 249 l-4 141 50 36 c72 52
145 86 208 99 32 6 54 16 54 24 0 7 16 18 35 25 19 7 35 18 35 25 0 15 85 93
134 123 89 55 141 58 248 16z m738 -2552 c3 -67 7 -124 10 -127 3 -3 35 12 70
33 36 22 68 37 72 35 20 -13 3 -33 -57 -68 -36 -21 -65 -39 -65 -40 0 -2 34
-27 75 -56 69 -49 93 -80 63 -80 -6 0 -44 23 -84 50 l-73 50 -3 -52 c-2 -39
-7 -53 -18 -53 -13 0 -16 32 -23 195 -8 201 -5 244 16 237 8 -2 14 -42 17
-124z m-834 88 c53 -24 78 -57 105 -138 49 -149 -12 -233 -178 -246 -60 -5
-66 2 -52 59 4 22 9 96 9 166 0 70 4 138 10 152 12 32 46 34 106 7z m1113 -55
c9 -10 8 -16 -4 -26 -19 -16 -41 1 -32 24 8 20 21 20 36 2z m1088 -124 c57
-183 51 -319 -18 -377 -44 -37 -140 -30 -155 10 -10 25 3 29 39 11 67 -31 123
12 134 103 l5 48 -52 6 c-63 8 -97 28 -106 63 -10 38 23 132 54 161 15 13 34
31 42 39 23 23 33 12 57 -64z m-1848 43 c31 -15 41 -33 41 -70 0 -33 -27 -45
-99 -45 -34 0 -61 -2 -61 -5 0 -4 7 -19 15 -34 24 -47 74 -55 112 -19 19 17
26 19 36 9 17 -17 -43 -71 -81 -71 -56 0 -115 60 -123 125 -3 31 16 69 51 98
35 30 68 34 109 12z m1010 0 c43 -22 54 -64 24 -97 -12 -14 -31 -18 -80 -18
-72 0 -81 -13 -38 -55 30 -31 71 -32 102 -3 18 17 26 19 35 10 17 -17 -26 -60
-67 -68 -60 -11 -115 33 -135 108 -9 30 -7 42 11 72 36 61 92 80 148 51z
m-654 -20 c36 -35 32 -70 -13 -115 -43 -43 -132 -75 -177 -64 -29 7 -55 54
-55 99 0 54 80 104 168 105 43 0 57 -5 77 -25z m988 14 c25 -11 47 -47 47 -76
0 -9 -18 -33 -40 -54 -45 -43 -131 -74 -174 -63 -49 12 -73 96 -40 143 35 49
148 77 207 50z m188 -19 c16 0 39 -10 53 -22 24 -21 27 -32 33 -125 6 -101 6
-103 -15 -103 -21 0 -22 5 -22 88 0 102 -12 129 -52 119 -27 -7 -38 -41 -38
-123 0 -42 -20 -81 -37 -71 -6 4 -5 46 4 119 16 134 19 146 35 130 7 -7 24
-12 39 -12z m-779 -24 c-2 -11 9 -79 23 -152 30 -147 28 -188 -9 -223 -38 -36
-87 -38 -151 -7 -30 15 -55 34 -55 42 0 20 24 18 62 -6 40 -24 95 -26 120 -3
24 21 23 79 -2 185 -11 46 -20 107 -20 136 0 46 3 53 18 50 10 -2 16 -11 14
-22z"/>
<path d="M1620 2580 c-8 -5 -28 -12 -43 -15 -26 -5 -40 -17 -91 -77 -31 -35
-36 -64 -19 -100 24 -50 43 -69 98 -94 96 -45 166 -22 217 71 48 88 34 141
-52 193 -55 32 -83 38 -110 22z m108 -82 c20 -33 11 -45 -26 -32 -30 10 -42
42 -20 55 18 12 27 8 46 -23z"/>
<path d="M2530 2566 c-51 -16 -65 -27 -84 -63 -39 -77 -9 -167 71 -211 37 -20
47 -22 81 -12 56 14 91 46 118 104 30 65 30 81 -2 123 -51 68 -106 85 -184 59z
m125 -76 c16 -17 16 -20 2 -26 -16 -6 -57 11 -57 25 0 26 31 27 55 1z"/>
<path d="M2078 2051 c-65 -9 -128 -44 -128 -71 0 -11 9 -43 20 -72 22 -61 74
-102 141 -113 74 -13 35 -69 -86 -127 -79 -37 -104 -36 -156 7 -26 23 -46 32
-51 27 -18 -18 -3 -46 42 -80 39 -30 50 -33 88 -29 50 5 152 54 202 95 l35 30
40 -33 c85 -69 155 -90 219 -65 31 11 81 84 72 105 -10 26 -35 16 -62 -24 -31
-48 -45 -54 -93 -41 -50 13 -145 81 -149 106 -2 11 18 60 43 109 50 98 54 122
26 156 -15 19 -29 23 -82 25 -35 1 -89 -1 -121 -5z"/>
<path d="M1030 833 c0 -38 -3 -112 -7 -165 -6 -92 -5 -98 13 -98 38 0 94 21
125 47 30 26 31 29 27 87 -9 109 -69 196 -135 196 -22 0 -23 -4 -23 -67z"/>
<path d="M3210 708 c-29 -63 -26 -106 6 -118 14 -6 41 -10 60 -10 39 0 38 -6
7 113 -20 73 -45 78 -73 15z"/>
<path d="M1365 740 c-23 -26 -17 -31 39 -33 54 -2 75 13 51 37 -22 22 -68 20
-90 -4z"/>
<path d="M2368 738 l-22 -22 34 -8 c43 -9 90 -1 90 16 0 39 -67 49 -102 14z"/>
<path d="M1683 747 c-64 -23 -86 -61 -67 -111 12 -32 112 -10 161 36 31 29 30
66 -3 78 -32 12 -50 12 -91 -3z"/>
<path d="M2699 751 c-72 -22 -98 -56 -79 -102 9 -20 20 -29 35 -29 59 0 155
56 155 90 0 39 -53 58 -111 41z"/>
</g>
</svg>
